<svg xmlns="http://www.w3.org/2000/svg" width="274.274" height="215.705" viewBox="0 0 274.274 215.705">
  <g id="Group_46" data-name="Group 46" transform="translate(-557.987 -425.556)">
    <path id="Path_298" data-name="Path 298" d="M0,0H15.228V256.964H0Z" transform="matrix(0.719, 0.695, -0.695, 0.719, 785.017, 425.556)" fill="#df2727"/>
    <path id="Path_299" data-name="Path 299" d="M20.841,0A20.737,20.737,0,0,1,41.682,20.631,20.737,20.737,0,0,1,20.841,41.261,20.737,20.737,0,0,1,0,20.631,20.737,20.737,0,0,1,20.841,0Z" transform="translate(680 600)" fill="#001830"/>
    <path id="Path_294" data-name="Path 294" d="M4832.24,5774.7s-.134-32.417,42.771-33.454,44.6,33.454,44.6,33.454h0s-14.895-15.3-44.6-15.3-42.771,15.3-42.771,15.3Z" transform="translate(-4174 -5179.142)" fill="#005bb3"/>
    <path id="Path_303" data-name="Path 303" d="M4825.5,5795.176s11.126-52.02,83.444-53.911,82.331,53.911,82.331,53.911l-23.363,15.133s-8.9-35.941-58.968-35.941-54.517,35.941-54.517,35.941Z" transform="translate(-4208.948 -5229.341)" fill="#001830"/>
    <path id="Path_304" data-name="Path 304" d="M4825.5,5829.414s18.279-85.027,137.086-88.117,135.258,88.117,135.258,88.117l-38.383,24.735s-14.623-58.746-96.875-58.746-89.563,58.746-89.563,58.746Z" transform="matrix(1, -0.017, 0.017, 1, -4366.981, -5219.702)" fill="#001830"/>
    <g id="Path_300" data-name="Path 300" transform="translate(630.034 473)" fill="#fff">
      <path d="M 24.983154296875 67.076171875 C 22.06265449523926 67.076171875 19.21769905090332 66.27274322509766 16.52729797363281 64.68819427490234 C 13.85379886627197 63.11360931396484 11.43833160400391 60.83938598632813 9.348010063171387 57.92868423461914 C 7.213687419891357 54.95671844482422 5.533920764923096 51.48252105712891 4.355376720428467 47.60257339477539 C 3.124243259429932 43.54947662353516 2.499998807907104 39.23806381225586 2.499998807907104 34.7880859375 C 2.499998807907104 30.33810806274414 3.124243259429932 26.02669715881348 4.355376720428467 21.97359657287598 C 5.533920764923096 18.09365272521973 7.213687419891357 14.61944103240967 9.348010063171387 11.64748573303223 C 11.43833160400391 8.736785888671875 13.85379886627197 6.462563514709473 16.52729797363281 4.887963771820068 C 19.21769905090332 3.303430318832397 22.06265449523926 2.499997138977051 24.983154296875 2.499997138977051 C 27.90365409851074 2.499997138977051 30.74860954284668 3.303430318832397 33.43901062011719 4.887963771820068 C 36.11251068115234 6.462563514709473 38.52797698974609 8.736785888671875 40.6182975769043 11.64748573303223 C 42.75262069702148 14.61944103240967 44.43238830566406 18.09365272521973 45.61093139648438 21.97359657287598 C 46.84206390380859 26.02669715881348 47.46630859375 30.33810806274414 47.46630859375 34.7880859375 C 47.46630859375 39.23806381225586 46.84206390380859 43.54947662353516 45.61093139648438 47.60257339477539 C 44.43238830566406 51.48252105712891 42.75262069702148 54.95671844482422 40.6182975769043 57.92868423461914 C 38.52797698974609 60.83938598632813 36.11251068115234 63.11360931396484 33.43901062011719 64.68819427490234 C 30.74860954284668 66.27274322509766 27.90365409851074 67.076171875 24.983154296875 67.076171875 Z" stroke="none"/>
      <path d="M 24.983154296875 4.999992370605469 C 19.96398162841797 4.999992370605469 15.13247299194336 7.878684997558594 11.37862014770508 13.10576629638672 C 9.404380798339844 15.85482025146484 7.846233367919922 19.08284759521484 6.747459411621094 22.70019149780273 C 5.587928771972656 26.51753997802734 4.999996185302734 30.58449935913086 4.999996185302734 34.7880859375 C 4.999996185302734 38.99167251586914 5.587928771972656 43.05861663818359 6.747459411621094 46.8759651184082 C 7.846233367919922 50.49331283569336 9.404380798339844 53.72134017944336 11.37862014770508 56.47039031982422 C 15.13247299194336 61.69747161865234 19.96398162841797 64.57616424560547 24.983154296875 64.57616424560547 C 30.00232696533203 64.57616424560547 34.83383560180664 61.69747161865234 38.58768844604492 56.47039031982422 C 40.56192779541016 53.72134017944336 42.12007522583008 50.49331283569336 43.21884918212891 46.8759651184082 C 44.37837982177734 43.05861663818359 44.96631622314453 38.99167251586914 44.96631622314453 34.7880859375 C 44.96631622314453 30.58449935913086 44.37837982177734 26.51753997802734 43.21884918212891 22.70019149780273 C 42.12007522583008 19.08284759521484 40.56192779541016 15.85482025146484 38.58768844604492 13.10576629638672 C 34.83383560180664 7.878684997558594 30.00232696533203 4.999992370605469 24.983154296875 4.999992370605469 M 24.983154296875 -7.62939453125e-06 C 38.78096771240234 -7.62939453125e-06 49.96631240844727 15.57515335083008 49.96631240844727 34.7880859375 C 49.96631240844727 54.00100708007813 38.78096771240234 69.57616424560547 24.983154296875 69.57616424560547 C 11.18534088134766 69.57616424560547 -3.814697265625e-06 54.00100708007813 -3.814697265625e-06 34.7880859375 C -3.814697265625e-06 15.57515335083008 11.18534088134766 -7.62939453125e-06 24.983154296875 -7.62939453125e-06 Z" stroke="none" fill="#001830"/>
    </g>
    <g id="Path_305" data-name="Path 305" transform="translate(713 473)" fill="#fff">
      <path d="M 25 67.076171875 C 22.07696723937988 67.076171875 19.22958946228027 66.27262115478516 16.53694534301758 64.68782806396484 C 13.86147785186768 63.11314010620117 11.4442663192749 60.83881759643555 9.35247802734375 57.92804336547852 C 7.216744422912598 54.95611953735352 5.535877704620361 51.48197555541992 4.356566429138184 47.60213088989258 C 3.12464451789856 43.54916381835938 2.5 39.23789596557617 2.5 34.7880859375 C 2.5 30.33826446533203 3.12464451789856 26.02699661254883 4.356566429138184 21.97404098510742 C 5.535877704620361 18.09418678283691 7.216744422912598 14.62005233764648 9.35247802734375 11.64813041687012 C 11.4442663192749 8.73735237121582 13.86147785186768 6.463030338287354 16.53694534301758 4.888341426849365 C 19.22957801818848 3.303552627563477 22.07696723937988 2.499997138977051 25 2.499997138977051 C 27.92303276062012 2.499997138977051 30.77042198181152 3.303552627563477 33.46305465698242 4.888341426849365 C 36.13852310180664 6.463030338287354 38.55573272705078 8.73735237121582 40.64752197265625 11.64813041687012 C 42.78325653076172 14.62005233764648 44.4641227722168 18.09418678283691 45.6434326171875 21.97404098510742 C 46.8753547668457 26.02699661254883 47.5 30.33826446533203 47.5 34.7880859375 C 47.5 39.23789596557617 46.8753547668457 43.54916381835938 45.6434326171875 47.60213088989258 C 44.4641227722168 51.48197555541992 42.78325653076172 54.95611953735352 40.64752197265625 57.92804336547852 C 38.55573272705078 60.83881759643555 36.13852310180664 63.11314010620117 33.46305465698242 64.68782806396484 C 30.77041053771973 66.27262115478516 27.92303276062012 67.076171875 25 67.076171875 Z" stroke="none"/>
      <path d="M 25 4.999992370605469 C 19.97567939758301 4.999992370605469 15.13959884643555 7.879138946533203 11.38262557983398 13.10707092285156 C 9.407119750976563 15.85603332519531 7.847972869873047 19.08392715454102 6.748508453369141 22.70108413696289 C 5.588279724121094 26.51816558837891 5 30.58481979370117 5 34.7880859375 C 5 38.99135208129883 5.588279724121094 43.05800628662109 6.748508453369141 46.87507247924805 C 7.847972869873047 50.49223327636719 9.407119750976563 53.72012710571289 11.38262557983398 56.46910095214844 C 15.13959884643555 61.69701766967773 19.97567939758301 64.57616424560547 25 64.57616424560547 C 30.02432060241699 64.57616424560547 34.86040115356445 61.69701766967773 38.61737442016602 56.46910095214844 C 40.59288024902344 53.72012710571289 42.15202713012695 50.49223327636719 43.25149536132813 46.87507247924805 C 44.41172027587891 43.05800628662109 45 38.99135208129883 45 34.7880859375 C 45 30.58481979370117 44.41172027587891 26.51816558837891 43.25149536132813 22.70108413696289 C 42.15202713012695 19.08392715454102 40.59288024902344 15.85603332519531 38.61737442016602 13.10707092285156 C 34.86040115356445 7.879138946533203 30.02432060241699 4.999992370605469 25 4.999992370605469 M 25 -7.62939453125e-06 C 38.80712127685547 -7.62939453125e-06 50 15.57515335083008 50 34.7880859375 C 50 54.00100708007813 38.80712127685547 69.57616424560547 25 69.57616424560547 C 11.19287872314453 69.57616424560547 0 54.00100708007813 0 34.7880859375 C 0 15.57515335083008 11.19287872314453 -7.62939453125e-06 25 -7.62939453125e-06 Z" stroke="none" fill="#001830"/>
    </g>
    <path id="Path_301" data-name="Path 301" d="M10.131,0c5.6,0,10.131,3.723,10.131,8.314s-4.536,8.314-10.131,8.314S0,12.906,0,8.314,4.536,0,10.131,0Z" transform="translate(644.737 501.877)" fill="#005bb3"/>
    <path id="Path_306" data-name="Path 306" d="M9.288,0c5.13,0,9.288,3.723,9.288,8.314s-4.159,8.314-9.288,8.314S0,12.906,0,8.314,4.159,0,9.288,0Z" transform="translate(729.034 499.877)" fill="#005bb3"/>
  </g>
</svg>
