<svg xmlns="http://www.w3.org/2000/svg" width="762.288" height="716.033" viewBox="0 0 762.288 716.033">
  <g id="Group_45" data-name="Group 45" transform="translate(-959.631 -255.765)">
    <path id="Path_272" data-name="Path 272" d="M0,0,202.615,62.544V658.488L0,715.469Z" transform="translate(1519.304 256.329)" fill="#667a8e"/>
    <g id="Path_273" data-name="Path 273" transform="translate(934.531 256.329)" fill="#ccd9e3">
      <path d="M 584.2733764648438 714.8238525390625 L 30.17481803894043 606.0891723632813 L 30.17481803894043 186.1905059814453 L 584.2733764648438 0.6947361826896667 L 584.2733764648438 714.8238525390625 Z" stroke="none"/>
      <path d="M 583.7733764648438 1.38934326171875 L 30.6748046875 186.5503540039063 L 30.6748046875 605.677734375 L 583.7733764648438 714.2161865234375 L 583.7733764648438 1.38934326171875 M 584.7733764648438 6.103515625e-05 L 584.7733764648438 715.4314575195313 L 29.6748046875 606.5006103515625 L 29.6748046875 185.83056640625 L 584.7733764648438 6.103515625e-05 Z" stroke="none" fill="#707070"/>
    </g>
    <path id="Path_279" data-name="Path 279" d="M0,0H154.874V370.217L0,398.233Z" transform="translate(964.694 454.442)" fill="#95a2af"/>
    <path id="Path_274" data-name="Path 274" d="M29.675,7.831,584.773,0V30.148l-555.1-4.59Z" transform="translate(934.531 599.015)" fill="#667a8e"/>
    <path id="Path_276" data-name="Path 276" d="M0,7.831,555.1,0,558.4,31.456,0,25.558Z" transform="matrix(0.995, 0.105, -0.105, 0.995, 967.302, 715.877)" fill="#667a8e"/>
    <g id="Path_277" data-name="Path 277" transform="translate(966.908 835.747) rotate(10)" fill="#667a8e">
      <path d="M 567.0873413085938 37.5458984375 L 4.38005256652832 31.55915260314941 L 0.5941072106361389 10.08793258666992 L 560.5564575195313 0.5072543621063232 L 567.0873413085938 37.5458984375 Z" stroke="none"/>
      <path d="M 560.13818359375 1.014484405517578 L 1.18817138671875 10.57784271240234 L 4.80035400390625 31.06363868713379 L 566.4904174804688 37.0395622253418 L 560.13818359375 1.014484405517578 M 560.9746704101563 2.288818359375e-05 L 567.6843872070313 38.05230712890625 L 3.959716796875 32.05473709106445 L 0 9.5980224609375 L 560.9746704101563 2.288818359375e-05 Z" stroke="none" fill="#707070"/>
    </g>
    <path id="Path_275" data-name="Path 275" d="M1.808,5.1,560.273,0l-3.367,27.422L0,19.828Z" transform="translate(962.976 496.098) rotate(-7)" fill="#667a8e"/>
    <g id="Path_278" data-name="Path 278" transform="translate(959.631 438.035) rotate(-18)" fill="#667a8e">
      <path d="M 581.0164794921875 25.53396415710449 L 0.5882745385169983 19.46159934997559 L 2.817080736160278 5.959974765777588 L 589.1484375 0.5064242482185364 L 581.0164794921875 25.53396415710449 Z" stroke="none"/>
      <path d="M 588.4581909179688 1.012811660766602 L 3.24188232421875 6.455989837646484 L 1.176513671875 18.96777534484863 L 580.6544189453125 25.03019905090332 L 588.4581909179688 1.012811660766602 M 589.8387451171875 -4.00543212890625e-05 L 581.3785400390625 26.03780746459961 L 0 19.95549964904785 L 2.39215087890625 5.463884353637695 L 589.8387451171875 -4.00543212890625e-05 Z" stroke="none" fill="#707070"/>
    </g>
    <path id="Path_280" data-name="Path 280" d="M5830.347,3782.863l-553.826-88.051L5428.61,3670.8l401.737,62.045Z" transform="translate(-4311.043 -2848.139)" fill="#eff3f6"/>
    <path id="Path_281" data-name="Path 281" d="M5429.943,3482.738l396.232-108.063v-62.036l-548.321,170.1Z" transform="translate(-4310.374 -3028.296)" fill="#eff3f6"/>
    <path id="Path_282" data-name="Path 282" d="M5187.756,3469.088l50.678-112.7,43.438,97.013" transform="translate(-4119.721 -2855.989)" fill="none" stroke="#707070" stroke-width="1"/>
    <path id="Path_287" data-name="Path 287" d="M0,112.7,50.679,0,94.117,97.013" transform="translate(1083.398 463.028) rotate(48)" fill="none" stroke="#707070" stroke-width="1"/>
    <path id="Path_283" data-name="Path 283" d="M5207.023,3392.18s13.031-31.855,37.646-10.135" transform="translate(-4110.029 -2846.897)" fill="none" stroke="#707070" stroke-width="1"/>
    <path id="Path_291" data-name="Path 291" d="M0,17.716S13.031-14.138,37.647,7.581" transform="translate(1081.313 504.965) rotate(48)" fill="none" stroke="#707070" stroke-width="1"/>
    <path id="Path_284" data-name="Path 284" d="M5207.024,3392.18s18.8-31.855,54.326-10.135" transform="translate(-4117.544 -2825.854)" fill="none" stroke="#707070" stroke-width="1"/>
    <path id="Path_290" data-name="Path 290" d="M0,17.716S18.8-14.138,54.326,7.581" transform="translate(1060.647 513.46) rotate(48)" fill="none" stroke="#707070" stroke-width="1"/>
    <path id="Path_285" data-name="Path 285" d="M5207.024,3392.18s25.589-31.855,73.927-10.135" transform="translate(-4127.809 -2804.813)" fill="none" stroke="#707070" stroke-width="1"/>
    <path id="Path_289" data-name="Path 289" d="M0,17.716S25.59-14.138,73.928,7.581" transform="translate(1038.142 519.912) rotate(48)" fill="none" stroke="#707070" stroke-width="1"/>
    <path id="Path_286" data-name="Path 286" d="M5207.024,3392.18s31.829-31.855,91.955-10.135" transform="translate(-4136.827 -2783.77)" fill="none" stroke="#707070" stroke-width="1"/>
    <path id="Path_288" data-name="Path 288" d="M0,17.716S31.83-14.138,91.955,7.581" transform="translate(1016.47 527.29) rotate(48)" fill="none" stroke="#707070" stroke-width="1"/>
    <path id="Path_292" data-name="Path 292" d="M0,0,19.484,167.366" transform="translate(1135.852 552.439) rotate(7)" fill="none" stroke="#707070" stroke-width="1"/>
    <g id="Ellipse_8" data-name="Ellipse 8" transform="translate(1127.019 675.668)" stroke="#707070" stroke-width="1">
      <ellipse cx="6.764" cy="8.267" rx="6.764" ry="8.267" stroke="none"/>
      <ellipse cx="6.764" cy="8.267" rx="6.264" ry="7.767" fill="none"/>
    </g>
    <g id="Ellipse_9" data-name="Ellipse 9" transform="translate(1124.013 692.201)" stroke="#707070" stroke-width="1">
      <ellipse cx="10.521" cy="11.273" rx="10.521" ry="11.273" stroke="none"/>
      <ellipse cx="10.521" cy="11.273" rx="10.021" ry="10.773" fill="none"/>
    </g>
    <path id="Path_293" data-name="Path 293" d="M5196.248,3364.423l-12.694-5.751" transform="translate(-4067.725 -2669.97)" fill="none" stroke="#707070" stroke-width="1"/>
    <line id="Line_4" data-name="Line 4" y1="9.018" x2="13.527" transform="translate(1141.298 685.438)" fill="none" stroke="#707070" stroke-width="1"/>
    <line id="Line_5" data-name="Line 5" x1="9.018" y2="4.509" transform="translate(1115.747 703.474)" fill="none" stroke="#707070" stroke-width="1"/>
    <line id="Line_6" data-name="Line 6" x2="9.018" y2="9.018" transform="translate(1144.304 706.479)" fill="none" stroke="#707070" stroke-width="1"/>
    <path id="Path_307" data-name="Path 307" d="M0,5.926,18.785,0V407.482L0,402.18Z" transform="translate(965.722 445.194)" fill="#667a8e"/>
  </g>
</svg>
