<svg xmlns="http://www.w3.org/2000/svg" xmlns:xlink="http://www.w3.org/1999/xlink" width="1060" height="805" viewBox="0 0 1060 805">
  <defs>
    <filter id="Rectangle_442" x="353" y="381" width="350" height="35" filterUnits="userSpaceOnUse">
      <feOffset dy="5" input="SourceAlpha"/>
      <feGaussianBlur stdDeviation="3" result="blur"/>
      <feFlood flood-opacity="0.161"/>
      <feComposite operator="in" in2="blur"/>
      <feComposite in="SourceGraphic"/>
    </filter>
  </defs>
  <g id="Group_47" data-name="Group 47" transform="translate(-430 -53)">
    <g id="Group_46" data-name="Group 46">
      <text id="_4_4" data-name="4   4" transform="translate(430 683)" fill="#001830" font-size="640" font-family="SourceSansPro-Bold, Source Sans Pro" font-weight="700"><tspan x="0" y="0" xml:space="preserve">4   4</tspan></text>
      <g id="Subtraction_6" data-name="Subtraction 6" transform="translate(4732 4455)" fill="#b3b3b3">
        <path d="M -3606.627197265625 -3786.500244140625 L -3941.372802734375 -3786.500244140625 C -3961.09716796875 -3819.73046875 -3971.5 -3858.003662109375 -3971.5 -3897.50048828125 C -3971.5 -3911.716064453125 -3970.144287109375 -3925.919677734375 -3967.47021484375 -3939.717041015625 C -3964.86572265625 -3953.154541015625 -3960.980224609375 -3966.371337890625 -3955.921142578125 -3979.000244140625 C -3950.956298828125 -3991.39453125 -3944.811767578125 -4003.3466796875 -3937.65869140625 -4014.525146484375 C -3930.57763671875 -4025.59228515625 -3922.447021484375 -4035.9970703125 -3913.49267578125 -4045.450927734375 C -3904.546630859375 -4054.896728515625 -3894.704833984375 -4063.470703125 -3884.240478515625 -4070.934814453125 C -3873.68701171875 -4078.462646484375 -3862.40869140625 -4084.926513671875 -3850.71875 -4090.14697265625 C -3838.822265625 -4095.459716796875 -3826.37451171875 -4099.53955078125 -3813.72119140625 -4102.2734375 C -3800.738037109375 -4105.078125 -3787.373779296875 -4106.50048828125 -3773.99951171875 -4106.50048828125 C -3760.62548828125 -4106.50048828125 -3747.261474609375 -4105.078125 -3734.278564453125 -4102.2734375 C -3721.62548828125 -4099.53955078125 -3709.177734375 -4095.45947265625 -3697.28076171875 -4090.14697265625 C -3685.590087890625 -4084.92578125 -3674.3115234375 -4078.4619140625 -3663.759033203125 -4070.934814453125 C -3653.2958984375 -4063.47119140625 -3643.4541015625 -4054.897216796875 -3634.50732421875 -4045.451171875 C -3625.552978515625 -4035.997314453125 -3617.42236328125 -4025.59228515625 -3610.341064453125 -4014.525390625 C -3603.188720703125 -4003.34765625 -3597.04443359375 -3991.395263671875 -3592.078857421875 -3979.000244140625 C -3587.01953125 -3966.37109375 -3583.134033203125 -3953.154541015625 -3580.52978515625 -3939.717041015625 C -3577.855712890625 -3925.919677734375 -3576.5 -3911.716064453125 -3576.5 -3897.50048828125 C -3576.5 -3858.004150390625 -3586.90283203125 -3819.731201171875 -3606.627197265625 -3786.500244140625 Z" stroke="none"/>
        <path d="M -3611.53271484375 -3795.000244140625 C -3594.146240234375 -3825.935791015625 -3585 -3861.171875 -3585 -3897.50048828125 C -3585 -3911.174560546875 -3586.3037109375 -3924.833984375 -3588.87451171875 -3938.099853515625 C -3591.376708984375 -3951.0107421875 -3595.109375 -3963.7080078125 -3599.96923828125 -3975.839111328125 C -3604.73681640625 -3987.739990234375 -3610.63525390625 -3999.214599609375 -3617.5009765625 -4009.944091796875 C -3624.2939453125 -4020.560546875 -3632.092041015625 -4030.540283203125 -3640.678466796875 -4039.60595703125 C -3649.250244140625 -4048.656005859375 -3658.676513671875 -4056.868408203125 -3668.695068359375 -4064.014892578125 C -3678.78759765625 -4071.214111328125 -3689.571533203125 -4077.394775390625 -3700.74658203125 -4082.3857421875 C -3712.10791015625 -4087.458984375 -3723.99365234375 -4091.35498046875 -3736.073486328125 -4093.96484375 C -3748.467529296875 -4096.642578125 -3761.227783203125 -4098.00048828125 -3773.99951171875 -4098.00048828125 C -3786.771484375 -4098.00048828125 -3799.53173828125 -4096.642578125 -3811.926025390625 -4093.96484375 C -3824.00634765625 -4091.35498046875 -3835.89208984375 -4087.458984375 -3847.252685546875 -4082.3857421875 C -3858.427001953125 -4077.3955078125 -3869.210693359375 -4071.21484375 -3879.304443359375 -4064.014892578125 C -3889.32421875 -4056.86767578125 -3898.75048828125 -4048.655517578125 -3907.321533203125 -4039.60595703125 C -3915.907958984375 -4030.5400390625 -3923.7060546875 -4020.560546875 -3930.4990234375 -4009.94384765625 C -3937.365234375 -3999.2138671875 -3943.263671875 -3987.739501953125 -3948.03076171875 -3975.839599609375 C -3952.890380859375 -3963.708251953125 -3956.623046875 -3951.0107421875 -3959.12548828125 -3938.099853515625 C -3961.6962890625 -3924.833740234375 -3963 -3911.174072265625 -3963 -3897.50048828125 C -3963 -3861.171142578125 -3953.853759765625 -3825.93505859375 -3936.46728515625 -3795.000244140625 L -3611.53271484375 -3795.000244140625 M -3601.8505859375 -3778.000244140625 L -3946.1494140625 -3778.000244140625 C -3968.294921875 -3813.493896484375 -3980 -3854.81640625 -3980 -3897.50048828125 C -3980 -3912.2568359375 -3978.592041015625 -3927.004638671875 -3975.81494140625 -3941.334228515625 C -3973.1083984375 -3955.298828125 -3969.06982421875 -3969.034912109375 -3963.8115234375 -3982.1611328125 C -3958.64892578125 -3995.048828125 -3952.2587890625 -4007.479248046875 -3944.818359375 -4019.106689453125 C -3937.44970703125 -4030.623046875 -3928.986572265625 -4041.453369140625 -3919.6640625 -4051.296142578125 C -3910.34228515625 -4061.138427734375 -3900.084716796875 -4070.073974609375 -3889.176513671875 -4077.854736328125 C -3878.163818359375 -4085.710205078125 -3866.390869140625 -4092.457275390625 -3854.1845703125 -4097.908203125 C -3841.751708984375 -4103.46044921875 -3828.74169921875 -4107.72412109375 -3815.51611328125 -4110.58154296875 C -3801.944580078125 -4113.513671875 -3787.976318359375 -4115.00048828125 -3773.99951171875 -4115.00048828125 C -3760.022705078125 -4115.00048828125 -3746.0546875 -4113.513671875 -3732.4833984375 -4110.58154296875 C -3719.25830078125 -4107.72412109375 -3706.248291015625 -4103.46044921875 -3693.81494140625 -4097.908203125 C -3681.608642578125 -4092.45703125 -3669.835693359375 -4085.710205078125 -3658.822998046875 -4077.854736328125 C -3647.9150390625 -4070.073974609375 -3637.65771484375 -4061.13818359375 -3628.3359375 -4051.296142578125 C -3619.013916015625 -4041.453857421875 -3610.55078125 -4030.623779296875 -3603.181396484375 -4019.106689453125 C -3595.741943359375 -4007.480224609375 -3589.351806640625 -3995.0498046875 -3584.1884765625 -3982.1611328125 C -3578.929931640625 -3969.03466796875 -3574.891357421875 -3955.298583984375 -3572.18505859375 -3941.334228515625 C -3569.407958984375 -3927.004638671875 -3568 -3912.2568359375 -3568 -3897.50048828125 C -3568 -3854.816650390625 -3579.705322265625 -3813.494140625 -3601.8505859375 -3778.000244140625 Z" stroke="none" fill="#001830"/>
      </g>
      <rect id="Rectangle_440" data-name="Rectangle 440" width="385" height="17" transform="translate(766 549)" fill="#001830"/>
      <rect id="Rectangle_441" data-name="Rectangle 441" width="332" height="17" transform="translate(788 660)" fill="#001830"/>
      <rect id="Rectangle_443" data-name="Rectangle 443" width="324" height="81" transform="translate(796 455)" fill="#d9d9d9"/>
      <rect id="Rectangle_444" data-name="Rectangle 444" width="294.458" height="81" transform="translate(808 566)" fill="#d9d9d9"/>
      <path id="Path_267" data-name="Path 267" d="M4779.076,4547l-25.152,13H5129.4l-27.728-13Z" transform="translate(-3983.166 -4011)" fill="#667a8e"/>
      <path id="Path_270" data-name="Path 270" d="M4766.791,4547.415,4753.924,4560h324.242l-17.1-12.584Z" transform="translate(-3958.166 -3900)" fill="#667a8e"/>
      <path id="Path_268" data-name="Path 268" d="M4774.262,4547l-20.338,13h303.615l-22.421-13Z" transform="translate(-3946.336 -4122)" fill="#667a8e"/>
      <g transform="matrix(1, 0, 0, 1, 430, 53)" filter="url(#Rectangle_442)">
        <rect id="Rectangle_442-2" data-name="Rectangle 442" width="332" height="17" transform="translate(362 385)" fill="#001830"/>
      </g>
      <path id="Path_271" data-name="Path 271" d="M5071.277,4436s-31.263-65.171-128.43-68.55S4810.193,4436,4810.193,4436Z" transform="translate(-3982 -4011)" fill="#d9d9d9"/>
    </g>
  </g>
</svg>
