<svg xmlns="http://www.w3.org/2000/svg" width="274.274" height="215.705" viewBox="0 0 274.274 215.705">
  <g id="Group_48" data-name="Group 48" transform="translate(-557.987 -425.556)">
    <path id="Path_298" data-name="Path 298" d="M0,0H15.228V256.964H0Z" transform="matrix(0.719, 0.695, -0.695, 0.719, 785.017, 425.556)" fill="#df2727"/>
    <path id="Path_299" data-name="Path 299" d="M20.841,0A20.737,20.737,0,0,1,41.682,20.631,20.737,20.737,0,0,1,20.841,41.261,20.737,20.737,0,0,1,0,20.631,20.737,20.737,0,0,1,20.841,0Z" transform="translate(680 600)" fill="#001830"/>
    <path id="Path_294" data-name="Path 294" d="M4832.24,5774.7s-.134-32.417,42.771-33.454,44.6,33.454,44.6,33.454h0s-14.895-15.3-44.6-15.3-42.771,15.3-42.771,15.3Z" transform="translate(-4174 -5179.142)" fill="#005bb3"/>
    <path id="Path_303" data-name="Path 303" d="M4825.5,5795.176s11.126-52.02,83.444-53.911,82.331,53.911,82.331,53.911l-23.363,15.133s-8.9-35.941-58.968-35.941-54.517,35.941-54.517,35.941Z" transform="translate(-4208.948 -5229.341)" fill="#001830"/>
    <path id="Path_304" data-name="Path 304" d="M4825.5,5829.414s18.279-85.027,137.086-88.117,135.258,88.117,135.258,88.117l-38.383,24.735s-14.623-58.746-96.875-58.746-89.563,58.746-89.563,58.746Z" transform="matrix(1, -0.017, 0.017, 1, -4366.981, -5219.702)" fill="#001830"/>
    <g id="Path_300" data-name="Path 300" transform="translate(618.557 474)" fill="#fff">
      <path d="M 35 67.5 C 30.61142158508301 67.5 26.35545539855957 66.64105224609375 22.35029983520508 64.94701385498047 C 18.48052215576172 63.31023406982422 15.00457763671875 60.96652221679688 12.01903343200684 57.9809684753418 C 9.033477783203125 54.99542236328125 6.689766883850098 51.51947784423828 5.05298900604248 47.64970016479492 C 3.358944416046143 43.6445426940918 2.5 39.38857650756836 2.5 35 C 2.5 30.61142158508301 3.358944416046143 26.35545539855957 5.05298900604248 22.35029983520508 C 6.689766883850098 18.48052215576172 9.033477783203125 15.00457763671875 12.01903343200684 12.01903343200684 C 15.00457763671875 9.033477783203125 18.48052215576172 6.689766883850098 22.35029983520508 5.05298900604248 C 26.35545539855957 3.358944416046143 30.61142158508301 2.5 35 2.5 C 39.38857650756836 2.5 43.6445426940918 3.358944416046143 47.64970016479492 5.05298900604248 C 51.51947784423828 6.689766883850098 54.99542236328125 9.033477783203125 57.9809684753418 12.01903343200684 C 60.96652221679688 15.00457763671875 63.31023406982422 18.48052215576172 64.94701385498047 22.35029983520508 C 66.64105224609375 26.35545539855957 67.5 30.61142158508301 67.5 35 C 67.5 39.38857650756836 66.64105224609375 43.6445426940918 64.94701385498047 47.64970016479492 C 63.31023406982422 51.51947784423828 60.96652221679688 54.99542236328125 57.9809684753418 57.9809684753418 C 54.99542236328125 60.96652221679688 51.51947784423828 63.31023406982422 47.64970016479492 64.94701385498047 C 43.6445426940918 66.64105224609375 39.38857650756836 67.5 35 67.5 Z" stroke="none"/>
      <path d="M 35 5 C 30.94782638549805 5 27.01950836181641 5.792503356933594 23.32417297363281 7.355491638183594 C 19.75239944458008 8.866241455078125 16.54356002807617 11.0300407409668 13.78680038452148 13.78680038452148 C 11.03002548217773 16.54356002807617 8.866226196289063 19.75239944458008 7.355491638183594 23.32418823242188 C 5.792503356933594 27.01950836181641 5 30.94782638549805 5 35 C 5 39.05217361450195 5.792503356933594 42.98049163818359 7.355491638183594 46.67581176757813 C 8.866226196289063 50.24760055541992 11.03002548217773 53.45643997192383 13.78680038452148 56.21319961547852 C 16.54356002807617 58.9699592590332 19.75239944458008 61.13375854492188 23.32417297363281 62.64450836181641 C 27.01950836181641 64.20749664306641 30.94782638549805 65 35 65 C 39.05217361450195 65 42.98049163818359 64.20749664306641 46.67581176757813 62.64450836181641 C 50.24760055541992 61.13375854492188 53.45643997192383 58.9699592590332 56.21319961547852 56.21319961547852 C 58.9699592590332 53.45643997192383 61.13375854492188 50.24760055541992 62.64450836181641 46.67581176757813 C 64.20749664306641 42.98049163818359 65 39.05217361450195 65 35 C 65 30.94782638549805 64.20749664306641 27.01950836181641 62.64450836181641 23.32418823242188 C 61.13375854492188 19.75239944458008 58.9699592590332 16.54356002807617 56.21319961547852 13.78680038452148 C 53.45643997192383 11.0300407409668 50.24760055541992 8.866241455078125 46.67581176757813 7.355491638183594 C 42.98049163818359 5.792503356933594 39.05217361450195 5 35 5 M 35 0 C 54.32995986938477 0 70 15.67004013061523 70 35 C 70 54.32995986938477 54.32995986938477 70 35 70 C 15.67002487182617 70 0 54.32995986938477 0 35 C 0 15.67004013061523 15.67002487182617 0 35 0 Z" stroke="none" fill="#001830"/>
    </g>
    <g id="Path_305" data-name="Path 305" transform="translate(703 472)" fill="#fff">
      <path d="M 34.66500091552734 67.5 C 30.32464599609375 67.5 26.1152229309082 66.64218902587891 22.15366744995117 64.95040130615234 C 18.32440185546875 63.31510925292969 14.88445663452148 60.97312164306641 11.92938995361328 57.9894905090332 C 8.972667694091797 55.00419998168945 6.651378631591797 51.52805709838867 5.029989719390869 47.65762329101563 C 3.351212024688721 43.65017700195313 2.500000953674316 39.39154434204102 2.500000953674316 35 C 2.500000953674316 30.60845565795898 3.351212024688721 26.34982299804688 5.029989719390869 22.34237861633301 C 6.651378631591797 18.47194480895996 8.972667694091797 14.99580001831055 11.92938995361328 12.01051139831543 C 14.88445663452148 9.026877403259277 18.32440185546875 6.68488883972168 22.15366744995117 5.049600124359131 C 26.1152229309082 3.357811212539673 30.32464599609375 2.5 34.66500091552734 2.5 C 39.00535583496094 2.5 43.21477890014648 3.357811212539673 47.17633438110352 5.049600124359131 C 51.00559997558594 6.68488883972168 54.4455451965332 9.026877403259277 57.40061187744141 12.01051139831543 C 60.35733413696289 14.99580001831055 62.67862319946289 18.47194480895996 64.30001068115234 22.34237861633301 C 65.97879028320313 26.34982299804688 66.83000183105469 30.60845565795898 66.83000183105469 35 C 66.83000183105469 39.39154434204102 65.97879028320313 43.65017700195313 64.30001068115234 47.65762329101563 C 62.67862319946289 51.52805709838867 60.35733413696289 55.00419998168945 57.40061187744141 57.9894905090332 C 54.4455451965332 60.97312164306641 51.00559997558594 63.31510925292969 47.17633438110352 64.95040130615234 C 43.21477890014648 66.64218902587891 39.00535583496094 67.5 34.66500091552734 67.5 Z" stroke="none"/>
      <path d="M 34.66500091552734 5 C 30.66402816772461 5 26.78494644165039 5.790229797363281 23.13550567626953 7.348720550537109 C 19.60488128662109 8.856494903564453 16.43221282958984 11.01684188842773 13.70564270019531 13.76976013183594 C 10.97577285766602 16.5260009765625 8.832668304443359 19.7352409362793 7.335842132568359 23.30833435058594 C 5.785892486572266 27.00823974609375 5 30.94189453125 5 35 C 5 39.05810546875 5.785892486572266 42.99176025390625 7.335842132568359 46.69166564941406 C 8.832668304443359 50.2647590637207 10.97577285766602 53.4739990234375 13.70564270019531 56.23023986816406 C 16.43221282958984 58.98316192626953 19.60488128662109 61.14350891113281 23.13550567626953 62.65127944946289 C 26.78494644165039 64.20977020263672 30.66402816772461 65 34.66500091552734 65 C 38.66597366333008 65 42.54505157470703 64.20977020263672 46.19449615478516 62.65127944946289 C 49.72513580322266 61.14350891113281 52.89780044555664 58.98316192626953 55.62435913085938 56.23023986816406 C 58.35422897338867 53.4739990234375 60.49733352661133 50.2647590637207 61.99415969848633 46.69166564941406 C 63.54410552978516 42.99176025390625 64.33000183105469 39.05812072753906 64.33000183105469 35 C 64.33000183105469 30.94187927246094 63.54410552978516 27.00823974609375 61.99415969848633 23.30833435058594 C 60.49733352661133 19.7352409362793 58.35422897338867 16.5260009765625 55.62435913085938 13.76976013183594 C 52.89780044555664 11.01684188842773 49.72513580322266 8.856494903564453 46.19449615478516 7.348720550537109 C 42.54505157470703 5.790229797363281 38.66597366333008 5 34.66500091552734 5 M 34.66500091552734 0 C 53.80995941162109 0 69.33000183105469 15.67004013061523 69.33000183105469 35 C 69.33000183105469 54.32995986938477 53.80995941162109 70 34.66500091552734 70 C 15.52005386352539 70 0 54.32995986938477 0 35 C 0 15.67004013061523 15.52005386352539 0 34.66500091552734 0 Z" stroke="none" fill="#001830"/>
    </g>
    <path id="Path_301" data-name="Path 301" d="M16,0A16,16,0,1,1,0,16,16,16,0,0,1,16,0Z" transform="translate(637.737 492.877)" fill="#005bb3"/>
    <path id="Path_306" data-name="Path 306" d="M16,0A16,16,0,1,1,0,16,16,16,0,0,1,16,0Z" transform="translate(722.034 490.877)" fill="#005bb3"/>
  </g>
</svg>
