<svg xmlns="http://www.w3.org/2000/svg" width="85.113" height="64.305" viewBox="0 0 85.113 64.305"><g transform="translate(-405.887 -739.557)"><path d="M114.908,125.615A10.808,10.808,0,1,0,104.1,114.808,10.818,10.818,0,0,0,114.908,125.615Z" transform="translate(317.65 648.878)" fill="#667a8e"/><path d="M78,0H7.1C3.183,0,0,2.87,0,6.435V57.87C0,61.419,3.183,64.3,7.1,64.3H78.016c3.914,0,7.1-2.886,7.1-6.435V6.435C85.1,2.87,81.913,0,78,0Zm-3.54,38.564L63.771,28.873a5.253,5.253,0,0,0-7.148.154C50.53,34.537,39.008,45,39.008,45l-7.2-6.528s-3.591-2.978-6.978.093L10.654,51.419V9.63H74.476l-.017,28.935Z" transform="translate(405.887 739.557)" fill="#667a8e"/></g></svg>