<svg xmlns="http://www.w3.org/2000/svg" xmlns:xlink="http://www.w3.org/1999/xlink" width="999" height="758" viewBox="0 0 999 758">
  <defs>
    <filter id="Rectangle_442" x="329" y="366.581" width="350" height="35" filterUnits="userSpaceOnUse">
      <feOffset dy="5" input="SourceAlpha"/>
      <feGaussianBlur stdDeviation="3" result="blur"/>
      <feFlood flood-opacity="0.161"/>
      <feComposite operator="in" in2="blur"/>
      <feComposite in="SourceGraphic"/>
    </filter>
  </defs>
  <g id="Group_47" data-name="Group 47" transform="translate(-461 -60)">
    <text id="_4_4" data-name="4   4" transform="translate(461 653)" fill="#001830" font-size="603" font-family="SourceSansPro-Bold, Source Sans Pro" font-weight="700"><tspan x="0" y="0" xml:space="preserve">4   4</tspan></text>
    <g id="Subtraction_6" data-name="Subtraction 6" transform="translate(759 328.168)" fill="#b3b3b3">
      <path d="M 373.3726806640625 328.5000915527344 L 38.62725830078125 328.4996337890625 C 18.90299224853516 295.2691040039063 8.49998950958252 256.9960327148438 8.49998950958252 217.4993896484375 C 8.49998950958252 203.2839660644531 9.855871200561523 189.0802612304688 12.52987194061279 175.2828521728516 C 15.1342830657959 161.8447875976563 19.01992988586426 148.6280364990234 24.07892990112305 135.9996185302734 C 29.04375457763672 123.6060333251953 35.18804931640625 111.653678894043 42.34128189086914 100.4745025634766 C 49.42240142822266 89.40802764892578 57.5529899597168 79.00315093994141 66.50733947753906 69.54897308349609 C 75.45393371582031 60.10297012329102 85.29575347900391 51.52902984619141 95.75946044921875 44.06538391113281 C 106.3122253417969 36.53808975219727 117.5906372070313 30.0742073059082 129.2815704345703 24.85332489013672 C 141.1781005859375 19.54067802429199 153.6258697509766 15.46079540252686 166.2789916992188 12.72703075408936 C 179.2613983154297 9.922206878662109 192.6255187988281 8.500030517578125 206.0001068115234 8.500030517578125 C 219.3746948242188 8.500030517578125 232.7388153076172 9.922206878662109 245.7213439941406 12.72703075408936 C 258.3743896484375 15.46079540252686 270.8221130371094 19.54067802429199 282.7186889648438 24.85332489013672 C 294.4095764160156 30.0742073059082 305.68798828125 36.53808975219727 316.2407531738281 44.06532287597656 C 326.7044677734375 51.52902984619141 336.5462951660156 60.10297012329102 345.4928588867188 69.54897308349609 C 354.4471740722656 79.00308990478516 362.5778198242188 89.40797424316406 369.6589965820313 100.4745025634766 C 376.8121032714844 111.6535568237305 382.9563903808594 123.6059112548828 387.9212951660156 135.9995574951172 C 392.9802856445313 148.6280364990234 396.8659362792969 161.8447875976563 399.4703369140625 175.2828521728516 C 402.1443481445313 189.0802612304688 403.5002136230469 203.2839660644531 403.5002136230469 217.4993896484375 C 403.5002136230469 256.9959716796875 393.0969543457031 295.2695007324219 373.3726806640625 328.5000915527344 Z" stroke="none"/>
      <path d="M 368.4672241210938 320.0000915527344 C 385.8536071777344 289.0649719238281 395.000244140625 253.8284301757813 395.000244140625 217.4994354248047 C 395.000244140625 203.8255004882813 393.6966552734375 190.1659698486328 391.1255798339844 176.9001007080078 C 388.6232299804688 163.9884338378906 384.8904418945313 151.2909698486328 380.0309143066406 139.1604309082031 C 375.2637634277344 127.2605667114258 369.3652954101563 115.7861633300781 362.4991149902344 105.0557632446289 C 355.7063598632813 94.439697265625 347.9082946777344 84.46009826660156 339.3216552734375 75.39409637451172 C 330.7501220703125 66.34416198730469 321.3239135742188 58.13189697265625 311.3047790527344 50.98529815673828 C 301.2118530273438 43.78602981567383 290.4279174804688 37.60523223876953 279.2527160644531 32.61463165283203 C 267.8919067382813 27.54116439819336 256.0063781738281 23.64536476135254 243.9263000488281 21.03536415100098 C 231.5325012207031 18.35769653320313 218.7723083496094 17.00003051757813 206.0001068115234 17.00003051757813 C 193.2279052734375 17.00003051757813 180.4677124023438 18.35769653320313 168.0740356445313 21.03536415100098 C 155.9938354492188 23.64536476135254 144.1083068847656 27.54116439819336 132.7475738525391 32.61456298828125 C 121.5723037719727 37.60523223876953 110.7883758544922 43.78602981567383 100.6953735351563 50.98529815673828 C 90.67623901367188 58.13189697265625 81.25010681152344 66.34416198730469 72.67870330810547 75.39402770996094 C 64.09197235107422 84.46002960205078 56.29390716552734 94.439697265625 49.50104141235352 105.0558319091797 C 42.63484191894531 115.7864303588867 36.73630523681641 127.2608337402344 31.96937370300293 139.1604309082031 C 27.10977363586426 151.2912292480469 23.37697410583496 163.9886932373047 20.8746395111084 176.9001007080078 C 18.30364036560059 190.1656951904297 17.00004005432129 203.8253021240234 17.00004005432129 217.4994354248047 C 17.00004005432129 253.8284912109375 26.14634132385254 289.0646362304688 43.53271102905273 319.9996337890625 L 368.4672241210938 320.0000915527344 M 378.1492309570313 337.0000915527344 L 378.1495056152344 336.9996337890625 L 33.8507080078125 336.9996337890625 C 11.70510673522949 301.5057678222656 4.014485602965578e-05 260.1834411621094 4.014485602965578e-05 217.4994354248047 C 4.014485602965578e-05 202.7422943115234 1.408106803894043 187.9944915771484 4.185173511505127 173.6655578613281 C 6.891640186309814 159.7008361816406 10.9302396774292 145.9646301269531 16.18850708007813 132.838623046875 C 21.35137367248535 119.9508285522461 27.74157333374023 107.5205612182617 35.18157196044922 95.89323425292969 C 42.55077362060547 84.37636566162109 51.01397323608398 73.54629516601563 60.33604049682617 63.70389556884766 C 69.65797424316406 53.86162948608398 79.91537475585938 44.92602920532227 90.82344055175781 37.14536285400391 C 101.8360366821289 29.29009628295898 113.6091079711914 22.5432300567627 125.8155746459961 17.09209632873535 C 138.2475738525391 11.54029750823975 151.2574462890625 7.276430606842041 164.4839019775391 4.418763637542725 C 178.0552368164063 1.486697196960449 192.0233001708984 3.0517578125e-05 206.0001068115234 3.0517578125e-05 C 219.9769134521484 3.0517578125e-05 233.9449768066406 1.486697196960449 247.5163116455078 4.418763637542725 C 260.7427673339844 7.276430606842041 273.7526550292969 11.54029750823975 286.1846313476563 17.09209632873535 C 298.39111328125 22.5432300567627 310.1641845703125 29.29009628295898 321.1767883300781 37.14536285400391 C 332.0848388671875 44.92602920532227 342.3422546386719 53.86162948608398 351.6642456054688 63.70389556884766 C 360.9862365722656 73.54629516601563 369.4494323730469 84.37636566162109 376.8186340332031 95.89323425292969 C 384.2586975097656 107.5205612182617 390.6488342285156 119.9508285522461 395.8117065429688 132.838623046875 C 401.0700378417969 145.9646301269531 405.1085815429688 159.7008361816406 407.8150329589844 173.6655578613281 C 410.5921020507813 187.9944915771484 412.000244140625 202.7422943115234 412.000244140625 217.4994354248047 C 412.000244140625 260.1836242675781 400.2948303222656 301.5061645507813 378.1495056152344 336.9996337890625 L 378.1492309570313 337.0000915527344 Z" stroke="none" fill="#001830"/>
    </g>
    <rect id="Rectangle_440" data-name="Rectangle 440" width="385" height="17" transform="translate(773 536.872)" fill="#001830"/>
    <rect id="Rectangle_441" data-name="Rectangle 441" width="332" height="17" transform="translate(795 643.162)" fill="#001830"/>
    <rect id="Rectangle_443" data-name="Rectangle 443" width="324" height="81" transform="translate(803 445.323)" fill="#d9d9d9"/>
    <rect id="Rectangle_444" data-name="Rectangle 444" width="294.458" height="81" transform="translate(815 551.192)" fill="#d9d9d9"/>
    <path id="Path_267" data-name="Path 267" d="M4779.076,4547l-25.152,13H5129.4l-27.728-13Z" transform="translate(-3976.166 -4022.471)" fill="#667a8e"/>
    <path id="Path_270" data-name="Path 270" d="M4766.791,4547.415,4753.924,4560h324.242l-17.1-12.584Z" transform="translate(-3951.166 -3916.159)" fill="#667a8e"/>
    <path id="Path_268" data-name="Path 268" d="M4774.262,4547l-20.338,13h303.615l-22.421-13Z" transform="translate(-3939.336 -4128.785)" fill="#667a8e"/>
    <g transform="matrix(1, 0, 0, 1, 461, 60)" filter="url(#Rectangle_442)">
      <rect id="Rectangle_442-2" data-name="Rectangle 442" width="332" height="17" transform="translate(338 370.58)" fill="#001830"/>
    </g>
    <path id="Path_271" data-name="Path 271" d="M5071.277,4436s-31.263-65.171-128.43-68.55S4810.193,4436,4810.193,4436Z" transform="translate(-3975 -4015.876)" fill="#d9d9d9"/>
  </g>
</svg>
