<svg id="undraw_books_6rhq" xmlns="http://www.w3.org/2000/svg" xmlns:xlink="http://www.w3.org/1999/xlink" width="623.459" height="515.931" viewBox="0 0 623.459 515.931">
  <defs>
    <linearGradient id="linear-gradient" x1="0.5" x2="0.5" y2="1" gradientUnits="objectBoundingBox">
      <stop offset="0" stop-color="#00386e"/>
      <stop offset="1" stop-color="#0a83f6"/>
    </linearGradient>
  </defs>
  <circle id="Ellipse_4" data-name="Ellipse 4" cx="158.77" cy="158.77" r="158.77" transform="translate(217.111 43.62)" fill="#005bb3" opacity="0.3"/>
  <path id="Path_129" data-name="Path 129" d="M269.237,245.9a13.707,13.707,0,1,1,13.707-13.707A13.707,13.707,0,0,1,269.237,245.9Zm0-25.129a11.422,11.422,0,1,0,11.422,11.422A11.422,11.422,0,0,0,269.237,220.768Z" transform="translate(-255.53 -218.484)" fill="#001830"/>
  <path id="Path_130" data-name="Path 130" d="M878.989,601.46H856.44V578.911h22.549Zm-20.814-1.735h19.08V580.646H858.175Z" transform="translate(-255.53 -218.484)" fill="#001830"/>
  <path id="Path_131" data-name="Path 131" d="M341.735,580.992,326.355,564.5l16.489-15.38,15.38,16.489Zm-12.929-16.4L341.82,578.54l13.953-13.014-13.014-13.953Z" transform="translate(-255.53 -218.484)" fill="#001830"/>
  <path id="Path_133" data-name="Path 133" d="M856.9,734.415q-37.048-5.8-71.243-9.867l8.778-17.557c-3.047-1.016-16.251,9.141-16.251,9.141l11.172-50.785c-15.235,2.031-22.345,53.831-22.345,53.831l-17.267-17.266,8.5,19.549c-69.758-7.33-129.953-9.617-180.554-9.093l7.513-15.027c-3.047-1.016-16.251,9.141-16.251,9.141L580.124,655.7c-15.235,2.031-22.345,53.831-22.345,53.831l-17.267-17.267,9,20.706a1013.481,1013.481,0,0,0-103.623,8.345c7.5-23.356,33.679-45.809,33.679-45.809-20.131,6.263-30.6,16.467-36.026,25.925a407.86,407.86,0,0,1,21.806-141.2s-40.627,91.411-34.533,152.352l.773,10.825c-35.345,5.514-53.081,11.012-53.081,11.012Z" transform="translate(-255.53 -218.484)" fill="#001830"/>
  <path id="Path_134" data-name="Path 134" d="M514.62,719.182C514.305,719.29,514.944,719.182,514.62,719.182Z" transform="translate(-255.53 -218.484)" fill="#3f3d56"/>
  <path id="Path_135" data-name="Path 135" d="M804.164,671.244V666.45h-290.5c-4.766,0-8.629,12.019-8.629,26.845s4.822,25.886,9.588,25.886H804.164v-4.794H514.62v-3.835H796.494v-1.917H514.62v-.959h279V704.8h-279v-1.918H790.742v-2.876H514.62v-1.917h274.2v-2.876H514.62V693.3H785.948v-2.877H514.62V688.5H787.865v-2.876H514.62v-1.917H789.783v-2.876H514.62v-1.917H796.494v-2.876H514.62v-4.794Z" transform="translate(-255.53 -218.484)" fill="#001830"/>
  <path id="Path_136" data-name="Path 136" d="M746.689,669.327C747,669.435,746.365,669.327,746.689,669.327Z" transform="translate(-255.53 -218.484)" fill="#3f3d56"/>
  <path id="Path_137" data-name="Path 137" d="M457.145,621.389V616.6h290.5c4.766,0,8.629,12.019,8.629,26.845s-4.822,25.886-9.588,25.886H457.145v-4.794H746.689V660.7H464.815v-1.917H746.689v-.959h-279v-2.876h279v-1.917H470.568v-2.876H746.69v-1.917H472.485v-2.876h274.2V643.44H475.361v-2.876H746.689v-1.917H473.444v-2.876H746.689v-1.918H471.526v-2.876H746.689v-1.917H464.815v-2.876H746.689v-4.794Z" transform="translate(-255.53 -218.484)" fill="#001830"/>
  <path id="Path_138" data-name="Path 138" d="M484.209,53.873,378.5,182.137,534.951,366.782l104.3-122.626Z" transform="translate(-173.53 -53.469)" fill="#00386e"/>
  <path id="Path_139" data-name="Path 139" d="M484.209,53.873,378.5,182.137,534.951,366.782l104.3-122.626Z" transform="translate(-173.53 -53.469)" fill="none" opacity="0.1"/>
  <path id="Path_140" data-name="Path 140" d="M464.725,348.561h0a53.131,53.131,0,0,1,8.619-11.508l97.094-98.433s33.828-5.638,40.876,11.276L487.277,351.38Z" transform="translate(-255.53 -218.483)" fill="#f2f2f2"/>
  <path id="Path_141" data-name="Path 141" d="M459.792,346.447,603.561,566.33s14.095,9.867,28.19,4.229l147.293-99.37-156.455-236.8L481.639,344.333Z" transform="translate(-255.53 -218.484)" fill="url(#linear-gradient)"/>
  <rect id="Rectangle_183" data-name="Rectangle 183" width="111.092" height="2.284" transform="translate(259.267 115.047) rotate(-35.701)" fill="#3f3d56"/>
  <rect id="Rectangle_184" data-name="Rectangle 184" width="2.284" height="214.621" transform="matrix(0.834, -0.552, 0.552, 0.834, 256.169, 140.573)" fill="#3f3d56"/>
  <rect id="Rectangle_185" data-name="Rectangle 185" width="118.967" height="2.285" transform="translate(388.942 323.684) rotate(-36.344)" fill="#3f3d56"/>
  <rect id="Rectangle_186" data-name="Rectangle 186" width="2.284" height="214.661" transform="matrix(0.821, -0.571, 0.571, 0.821, 364.713, 54.615)" fill="#3f3d56"/>
  <rect id="Rectangle_187" data-name="Rectangle 187" width="151.386" height="1.409" transform="matrix(0.737, -0.676, 0.676, 0.737, 217.177, 121.101)" fill="#3f3d56"/>
  <rect id="Rectangle_188" data-name="Rectangle 188" width="155.493" height="1.41" transform="translate(221.435 122.523) rotate(-41.439)" fill="#3f3d56"/>
  <rect id="Rectangle_189" data-name="Rectangle 189" width="157.533" height="1.41" transform="matrix(0.768, -0.64, 0.64, 0.768, 224.284, 122.532)" fill="#3f3d56"/>
</svg>
