<svg xmlns="http://www.w3.org/2000/svg" width="24" height="24" viewBox="0 0 24 24"><path d="M2.155,24,0,21.756l8.657-7.839a8.528,8.528,0,0,1-.578-.74,8.379,8.379,0,0,1-.8-1.436,8.241,8.241,0,0,1,0-6.58,8.379,8.379,0,0,1,.8-1.436A8.574,8.574,0,0,1,9.142,2.475,8.736,8.736,0,0,1,11.908.664,8.848,8.848,0,0,1,13.542.172a9.046,9.046,0,0,1,3.508,0,8.8,8.8,0,0,1,3.112,1.272,8.718,8.718,0,0,1,1.288,1.032,8.572,8.572,0,0,1,1.063,1.251,8.377,8.377,0,0,1,.8,1.436,8.241,8.241,0,0,1,0,6.58,8.378,8.378,0,0,1-.8,1.436,8.574,8.574,0,0,1-1.063,1.251,8.735,8.735,0,0,1-2.767,1.811,8.851,8.851,0,0,1-1.634.492,9.046,9.046,0,0,1-3.508,0,8.849,8.849,0,0,1-1.634-.492q-.4-.163-.779-.366L2.155,24h0Zm7.6-15.548a5.546,5.546,0,0,0,11.088,0,5.546,5.546,0,0,0-11.088,0Z" fill="#001830"/></svg>